<?xml version="1.0" encoding="utf-8"?>
<!-- Generator: Adobe Illustrator 24.0.2, SVG Export Plug-In . SVG Version: 6.00 Build 0)  -->
<svg version="1.1" xmlns="http://www.w3.org/2000/svg" xmlns:xlink="http://www.w3.org/1999/xlink" x="0px" y="0px"
	 viewBox="0 0 1000 1000" style="enable-background:new 0 0 1000 1000;" xml:space="preserve">
<style type="text/css">
	.st0{fill:none;}
	.st1{fill:#061927;}
</style>
<g id="Calque_2">
	<rect x="-17" y="-21" class="st0" width="1037" height="1066"/>
</g>
<g id="Calque_1">
	<g>
		<g>
			<path class="st1" d="M446.7,586.6c-12.4,0-24.3-1.6-35.6-4.8c-11.3-3.2-21.4-8-30.3-14.2c-8.9-6.3-16-14-21.1-23.1
				c-5.2-9.1-7.9-19.5-8.1-31.3c0-1.8,0.6-3.3,2-4.7c1.3-1.3,2.8-2,4.6-2h61.2c3.4,0,5.9,0.8,7.7,2.2c1.7,1.5,3.2,4,4.6,7.4
				c1.4,2.6,2.8,4.8,4.2,6.6c1.4,1.8,3.2,3.2,5.2,4c2.1,0.9,4.7,1.4,8,1.4c5.4,0,9.7-1.7,12.9-5.2c3.2-3.5,4.8-9.8,4.8-19v-69.3
				h-89.1c-2.2,0-4.1-0.8-5.7-2.4c-1.6-1.6-2.4-3.5-2.4-5.7v-44.7c0-2.2,0.8-4.1,2.4-5.7c1.6-1.6,3.5-2.4,5.7-2.4h158.7
				c2.2,0,4.1,0.8,5.7,2.4c1.6,1.6,2.4,3.5,2.4,5.7v124.5c0,18.4-4.3,33.6-13,45.5c-8.7,11.9-20.5,20.7-35.2,26.4
				C481.4,583.7,464.9,586.6,446.7,586.6z"/>
			<path class="st1" d="M474,583.6c-2.2,0-4.1-0.8-5.7-2.4c-1.6-1.6-2.4-3.5-2.4-5.7V381.7c0-2.2,0.8-4.1,2.4-5.7
				c1.6-1.6,3.5-2.4,5.7-2.4h90.9c18.2,0,34,2.7,47.5,8c13.5,5.3,24,13.4,31.5,24.3c7.5,10.9,11.2,24.7,11.2,41.2
				c0,16.6-3.8,30.1-11.2,40.6s-18,18.2-31.5,23.1c-13.5,4.9-29.4,7.3-47.5,7.3h-21v57.3c0,2.2-0.8,4.1-2.4,5.7
				c-1.6,1.6-3.5,2.4-5.7,2.4H474z M542.4,462.7h21c3.2,0,6.3-1.2,9.3-3.8c3-2.5,4.5-6.6,4.5-12.5c0-3.8-1-7.6-2.8-11.4
				c-1.9-3.8-5.6-5.7-11-5.7h-21V462.7z"/>
		</g>
	</g>
</g>
</svg>
